<svg xmlns="http://www.w3.org/2000/svg" viewBox="0 0 1000 1000" width="500" height="500">

<g id="blueF" transform="translate(0.000000,1000.000000) scale(0.100000,-0.100000)" fill="#000000" stroke="none">
<path d="M5062 8471 c24 -16 124 -75 223 -131 99 -57 221 -126 270 -155 50 -30
126 -73 170 -98 122 -68 374 -214 627 -364 59 -34 110 -63 113 -63 3 0 65 -35
138 -79 72 -43 152 -89 177 -101 25 -13 63 -35 85 -50 22 -15 72 -44 110 -65
39 -21 134 -76 213 -121 78 -46 144 -84 147 -84 2 0 37 -20 77 -44 97 -59 440
-256 506 -291 l52 -28 0 -379 0 -378 -22 -10 c-13 -5 -66 -20 -118 -34 -52
-14 -127 -37 -165 -51 -115 -41 -105 -65 -105 244 0 308 9 277 -103 342 -40
23 -130 76 -202 117 -71 41 -173 101 -225 132 -52 32 -114 67 -138 79 -24 12
-89 50 -145 83 -56 34 -147 87 -202 118 -139 79 -370 212 -605 350 -134 79
-308 178 -400 230 -36 20 -168 96 -293 168 -126 73 -237 132 -247 132 -18 0
-102 -46 -325 -175 -132 -76 -561 -324 -815 -470 -74 -43 -191 -110 -260 -150
-69 -40 -201 -117 -295 -170 -93 -54 -207 -119 -252 -146 -44 -27 -107 -63
-140 -80 -32 -18 -80 -46 -108 -64 -27 -17 -102 -60 -165 -95 -63 -35 -134
-77 -158 -94 l-43 -30 1 -1030 c2 -1317 3 -1216 -14 -1216 -8 0 -96 -27 -197
-60 -101 -32 -185 -57 -188 -54 -8 8 -14 2506 -6 2608 l7 95 69 36 c38 19 144
79 236 132 93 53 213 122 268 153 233 132 397 226 495 285 58 34 150 88 205
120 55 32 117 68 137 81 21 13 41 24 46 24 4 0 41 21 82 46 41 26 156 92 255
149 99 56 230 131 290 167 115 68 476 275 630 361 50 28 119 70 154 94 35 23
74 43 87 43 13 0 43 -13 66 -29z m92 -995 c139 -207 206 -444 206 -721 0 -268
-72 -506 -234 -773 -139 -230 -259 -378 -617 -767 -352 -382 -460 -512 -605
-730 -138 -207 -269 -477 -344 -712 -36 -113 -90 -319 -90 -345 0 -40 -24 -13
-65 75 -168 353 -215 766 -126 1108 104 402 327 745 911 1404 122 137 285 330
387 455 283 351 457 694 488 960 11 102 17 130 25 130 5 0 34 -38 64 -84z
m650 -1056 c55 -92 107 -219 138 -337 20 -78 23 -111 23 -283 0 -198 -5 -240
-46 -385 -56 -194 -160 -416 -290 -615 -67 -104 -239 -333 -314 -419 -17 -19
-82 -93 -145 -165 -545 -617 -735 -946 -836 -1446 -14 -69 -27 -127 -29 -129
-2 -2 -35 13 -72 34 -362 198 -535 623 -412 1015 67 213 221 493 410 745 121
162 259 324 594 700 417 467 613 739 770 1068 34 73 78 178 96 235 39 118 31
120 113 -18z"/>
</g>
<g id="greenF" transform="translate(0.000000,1000.000000) scale(0.100000,-0.100000)" fill="#000000" stroke="none">
<path d="M7964 5790 c9 -138 7 -2562 -2 -2576 -6 -9 -228 -141 -537 -317 -59 -34
-249 -143 -870 -502 -49 -29 -241 -139 -425 -245 -184 -107 -416 -240 -515
-298 -99 -57 -278 -160 -397 -228 l-217 -125 -163 94 c-216 126 -625 362 -873
505 -110 63 -256 147 -325 187 -69 40 -226 131 -350 202 -124 71 -268 155
-320 185 -470 272 -901 519 -914 524 -14 5 -16 45 -16 379 l0 373 42 16 c65
24 342 116 351 116 4 0 7 -127 7 -282 l1 -283 591 -340 c326 -187 655 -377
732 -421 78 -45 388 -224 689 -398 l549 -317 171 99 c619 356 2212 1275 2305
1329 l92 54 0 1124 0 1124 183 60 c100 32 187 60 193 60 7 1 13 -36 18 -99z
m-1455 -515 c147 -302 244 -595 272 -829 16 -136 6 -392 -21 -520 -49 -232
-157 -481 -287 -666 -93 -131 -301 -338 -438 -434 -133 -94 -351 -204 -495
-250 -100 -32 -239 -53 -253 -39 -4 3 12 22 36 42 380 318 657 784 796 1339
34 133 89 464 76 450 -2 -2 -20 -46 -40 -98 -236 -604 -660 -1134 -1187 -1485
-81 -54 -83 -55 -91 -33 -14 37 -1 383 18 468 24 108 78 266 121 352 126 252
265 432 666 860 389 415 560 650 675 924 43 102 49 113 61 97 7 -10 48 -90 91
-178z"/>
</g>
</svg>